<svg width="39" height="39" viewBox="0 0 39 39" fill="none" xmlns="http://www.w3.org/2000/svg">
<path d="M37.4766 24.9082C38.318 24.9082 39 24.2262 39 23.3848V13.4824C39 10.1223 36.2663 7.38867 32.9062 7.38867H30.5936C29.9412 7.38867 29.3616 6.97376 29.1514 6.35609L28.6904 5.00198C28.0597 3.14917 26.321 1.9043 24.3639 1.9043H14.6313C12.7121 1.9043 10.9846 3.11718 10.3328 4.9223L9.80545 6.38267C9.58813 6.98435 9.01235 7.38867 8.37258 7.38867H6.09375C2.73366 7.38867 0 10.1223 0 13.4824V31.002C0 34.362 2.73366 37.0957 6.09375 37.0957H32.9062C36.2663 37.0957 39 34.362 39 31.002C39 30.1606 38.318 29.4785 37.4766 29.4785C36.6352 29.4785 35.9531 30.1606 35.9531 31.002C35.9531 32.682 34.5863 34.0488 32.9062 34.0488H6.09375C4.4137 34.0488 3.04688 32.682 3.04688 31.002V13.4824C3.04688 11.8024 4.4137 10.4355 6.09375 10.4355H8.37258C10.2918 10.4355 12.0193 9.22266 12.6711 7.41754L13.1985 5.95717C13.4158 5.35549 13.9916 4.95117 14.6313 4.95117H24.3639C25.0163 4.95117 25.5958 5.36616 25.8061 5.98376L26.267 7.33787C26.8977 9.19067 28.6364 10.4355 30.5936 10.4355H32.9062C34.5863 10.4355 35.9531 11.8024 35.9531 13.4824V23.3848C35.9531 24.2262 36.6352 24.9082 37.4766 24.9082Z" fill="white"/>
<path d="M19.5762 11.959C14.326 11.959 10.0547 16.2303 10.0547 21.4805C10.0547 26.7306 14.326 31.002 19.5762 31.002C24.8263 31.002 29.0977 26.7306 29.0977 21.4805C29.0977 16.2303 24.8263 11.959 19.5762 11.959ZM19.5762 27.9551C16.0061 27.9551 13.1016 25.0506 13.1016 21.4805C13.1016 17.9104 16.0061 15.0059 19.5762 15.0059C23.1463 15.0059 26.0508 17.9104 26.0508 21.4805C26.0508 25.0506 23.1463 27.9551 19.5762 27.9551Z" fill="white"/>
</svg>
